# xmcd
#
# Track frame offsets: 
#        150
#        15777
#        31502
#        54595
#        72510
#        92040
#        111670
#        125640
#        136722
#        153472
#        163750
#        179302
#
# Disc length: 2693 seconds
#
# Revision: 1
# Processed by: cddbd v1.4PL0 Copyright (c) Steve Scherf et al.
# Submitted via: ExactAudioCopy v0.95a2
#
DISCID=990a830c
DTITLE=Eleven Hundred Springs - No Stranger To The Blues
DYEAR=2000
DGENRE=Country
TTITLE0=No Stranger To The Blues
TTITLE1=Four Walls
TTITLE2=King Of Tears
TTITLE3=Steel Guitar And Fiddle
TTITLE4=I Don't Miss Her Anymore
TTITLE5=You Hit The Old Dance Floor
TTITLE6=Sneaking Suspicion
TTITLE7=If I Was A Candle
TTITLE8=Lost Without You
TTITLE9=One I Need
TTITLE10=Seven Days
TTITLE11=Picture Perfect Life
EXTD=YEAR: 2000 ID3G: 2
EXTT0=
EXTT1=
EXTT2=
EXTT3=
EXTT4=
EXTT5=
EXTT6=
EXTT7=
EXTT8=
EXTT9=
EXTT10=
EXTT11=
PLAYORDER=
